<?xml version="1.0" encoding="utf-8"?>
<!-- Generator: Adobe Illustrator 25.2.1, SVG Export Plug-In . SVG Version: 6.00 Build 0)  -->
<svg version="1.1" id="Layer_1" xmlns="http://www.w3.org/2000/svg" xmlns:xlink="http://www.w3.org/1999/xlink" x="0px" y="0px"
	 viewBox="0 0 1080 904.4" style="enable-background:new 0 0 1080 904.4;" xml:space="preserve">
<style type="text/css">
	.st0{fill:#FFFFFF;}
	.st1{fill-rule:evenodd;clip-rule:evenodd;fill:#FFFFFF;}
</style>
<g>
	<g>
		<g>
			<path class="st0" d="M122.1,547.3c0-1.1,0.4-2,1.2-2.7c0.8-0.7,1.7-1,2.9-1h91.8c1,0,1.9,0.3,2.7,0.9c0.8,0.6,1.3,1.6,1.4,2.8
				v21.2c0,1-0.4,2-1.1,2.9c-0.7,0.9-1.7,1.4-3,1.4h-29.4v93.4c0,1-0.4,2-1.1,2.8s-1.7,1.2-2.9,1.2h-25c-1,0-1.9-0.4-2.7-1.2
				s-1.3-1.7-1.3-2.9v-93.4h-29.4c-1.1,0-2.1-0.4-2.9-1.1c-0.8-0.7-1.2-1.8-1.2-3.2V547.3z"/>
			<path class="st0" d="M244.9,547.5c0-1.2,0.3-2.1,0.9-2.9c0.6-0.7,1.6-1.1,2.8-1.1h55.1c5.9,0,11.4,1.1,16.5,3.3
				c5.1,2.2,9.6,5.2,13.4,8.9c3.8,3.8,6.8,8.2,9,13.2c2.2,5,3.3,10.4,3.3,16.1c0,3.9-0.5,7.6-1.6,11.1c-1.1,3.5-2.5,6.8-4.4,9.8
				c-1.9,3-4.1,5.8-6.7,8.3c-2.6,2.5-5.4,4.6-8.5,6.4l21.9,41.3c0.4,0.8,0.9,1.7,1.5,2.8c0.6,1.1,0.9,2,0.9,2.8
				c0,0.9-0.3,1.6-0.9,2.1c-0.6,0.5-1.4,0.7-2.4,0.7h-29.3c-1,0-1.8-0.3-2.6-0.9c-0.8-0.6-1.3-1.3-1.5-2.3l-20.7-39h-13.8v38.5
				c0,2.4-1.3,3.7-3.9,3.7h-25.3c-1.1,0-2-0.3-2.7-0.9c-0.7-0.6-1-1.5-1-2.8V547.5z M311.7,585.4c0-1.7-0.3-3.4-0.9-5.1
				c-0.6-1.7-1.5-3.3-2.6-4.7c-1.1-1.4-2.5-2.6-4.1-3.6c-1.6-1-3.4-1.6-5.3-1.9c-1.6-0.1-3.1-0.2-4.5-0.3c-1.4-0.1-2.9-0.1-4.6-0.1
				h-11.8V601h15.7c1,0,1.9,0,2.7-0.1c0.8-0.1,1.7-0.1,2.6-0.3c2-0.2,3.8-0.8,5.4-1.7c1.6-0.9,2.9-2.1,4-3.5c1.1-1.4,1.9-3,2.5-4.7
				C311.4,589,311.7,587.2,311.7,585.4z"/>
			<path class="st0" d="M399.4,619.8c0,4.2,0.6,7.8,1.8,10.7c1.2,2.9,2.7,5.3,4.6,7.2c1.9,1.8,4.1,3.2,6.7,4.1
				c2.5,0.9,5.2,1.3,7.9,1.3c2.9,0,5.5-0.5,8.1-1.5c2.5-1,4.8-2.5,6.7-4.4c1.9-2,3.4-4.4,4.5-7.3c1.1-2.9,1.7-6.2,1.7-10v-72.4
				c0-1,0.4-1.9,1.1-2.6s1.7-1.1,2.9-1.1h24.9c1.3,0,2.3,0.4,3.1,1.2s1.1,1.6,1.1,2.6v71.9c0,10-1.5,18.3-4.4,25.1
				c-2.9,6.8-6.9,12.2-11.8,16.3c-4.9,4.1-10.7,7.1-17.2,8.9c-6.5,1.8-13.4,2.7-20.5,2.7s-14-0.9-20.6-2.8c-6.5-1.8-12.3-4.9-17.2-9
				c-5-4.2-8.9-9.6-11.8-16.4c-2.9-6.7-4.4-15-4.4-24.8v-71.9c0-1,0.3-1.8,1-2.6c0.6-0.8,1.5-1.2,2.4-1.2h25.5
				c0.9,0,1.7,0.4,2.7,1.1c0.9,0.7,1.4,1.6,1.4,2.7V619.8z"/>
			<path class="st0" d="M517.1,629.3c1,0.8,2.2,1.9,3.7,3.2c1.5,1.3,3.2,2.7,5.2,4c2.9,1.9,5.8,3.4,8.6,4.5c2.8,1.1,5.8,1.6,9,1.6
				c2.9,0,5.3-0.3,7.3-1c2-0.7,3.5-1.5,4.7-2.6c1.1-1.1,1.9-2.3,2.4-3.8c0.5-1.4,0.7-2.9,0.7-4.5c0-1.8-0.7-3.3-2-4.7
				c-1.3-1.4-3-2.6-4.9-3.7c-1.9-1.1-4-2-6.1-2.8c-2.1-0.8-3.9-1.4-5.5-1.9c-6.8-2.4-12.8-5-17.9-7.7c-5.1-2.8-9.4-5.8-12.8-9.2
				c-3.4-3.4-6-7.1-7.7-11.2c-1.7-4.1-2.6-8.6-2.6-13.6c0-5.3,1.1-10.1,3.2-14.4c2.1-4.3,5.2-8,9.1-11.1c4-3.1,8.7-5.4,14.3-7.1
				c5.6-1.7,11.8-2.5,18.7-2.5c5.2,0,10.1,0.6,14.9,1.8c4.8,1.2,9.4,3,14,5.6c1.9,1.1,3.8,2.3,5.5,3.5c1.7,1.2,3.3,2.4,4.6,3.5
				c1.3,1.1,2.4,2.2,3.1,3.2c0.8,1,1.2,1.9,1.2,2.6c0,0.7-0.2,1.4-0.6,2c-0.4,0.6-0.9,1.3-1.7,2.1l-13.1,13.9c-1,1-1.9,1.5-2.9,1.5
				c-0.8,0-1.5-0.2-2.2-0.7c-0.7-0.5-1.4-1-2.2-1.7l-0.8-0.7c-1.1-1-2.4-2-3.8-3c-1.4-1-2.9-1.9-4.5-2.8c-1.6-0.8-3.3-1.5-5-2
				c-1.8-0.5-3.6-0.8-5.4-0.8c-1.9,0-3.6,0.2-5.3,0.5c-1.6,0.3-3.1,0.8-4.3,1.5c-1.3,0.7-2.2,1.6-3,2.7c-0.7,1.1-1.1,2.5-1.1,4.1
				c0,1.6,0.4,3,1.2,4.1c0.8,1.2,2,2.2,3.6,3.2c1.6,1,3.6,1.9,5.9,2.8c2.4,0.9,5.1,1.8,8.2,2.9c6,2,11.6,4.1,16.7,6.3
				c5.1,2.2,9.5,4.8,13.2,7.8c3.7,3,6.6,6.6,8.7,10.7c2.1,4.2,3.1,9.2,3.1,15.1c0,6.3-1.3,11.9-3.8,17c-2.6,5.1-6.1,9.4-10.5,13
				c-4.5,3.6-9.7,6.4-15.7,8.3c-6,2-12.5,2.9-19.5,2.9c-6.5,0-13-1.2-19.3-3.5c-6.3-2.3-12.2-5.5-17.7-9.4c-2.3-1.7-4.2-3.3-5.8-4.9
				c-1.6-1.6-2.8-2.9-3.7-3.9l-0.3-0.3c-0.1-0.1-0.1-0.2-0.2-0.2c-0.1,0-0.1-0.1-0.2-0.1c-0.1-0.1-0.1-0.2-0.2-0.2
				c-0.1,0-0.1-0.1-0.2-0.1c-1.3-1.4-2-2.6-2-3.4c0-1,0.6-2.1,2-3.3l14.8-14.1c1.2-0.9,2.2-1.3,2.9-1.3c0.5,0,1.1,0.2,1.6,0.5
				C515.6,628.1,516.3,628.6,517.1,629.3z"/>
			<path class="st0" d="M608.3,547.3c0-1.1,0.4-2,1.2-2.7c0.8-0.7,1.7-1,2.9-1h91.8c1,0,1.9,0.3,2.7,0.9c0.8,0.6,1.3,1.6,1.4,2.8
				v21.2c0,1-0.4,2-1.1,2.9c-0.7,0.9-1.7,1.4-3,1.4h-29.4v93.4c0,1-0.4,2-1.1,2.8s-1.7,1.2-2.9,1.2h-25c-1,0-1.9-0.4-2.7-1.2
				c-0.9-0.8-1.3-1.7-1.3-2.9v-93.4h-29.4c-1.1,0-2.1-0.4-2.9-1.1c-0.8-0.7-1.2-1.8-1.2-3.2V547.3z"/>
			<path class="st0" d="M730.9,547.5c0-1.2,0.3-2.1,1-2.9c0.6-0.7,1.6-1.1,2.8-1.1h84.7c1.3,0,2.2,0.4,2.9,1.1c0.7,0.7,1,1.7,1,3
				v21.1c0,1-0.3,1.9-1,2.8c-0.7,0.9-1.7,1.3-3,1.3h-55.3V594h42.7c1.1,0,2,0.3,2.7,0.8c0.7,0.5,1.1,1.4,1.1,2.6v18.4
				c0,0.8-0.3,1.6-0.9,2.3c-0.6,0.7-1.5,1.1-2.7,1.1h-42.8V641h57.4c2.6,0,3.8,1.3,3.8,3.9v21.4c0,0.6-0.2,1.1-0.7,1.5
				c-0.2,1.6-1.4,2.4-3.5,2.4h-86.3c-1.1,0-2-0.3-2.7-0.9c-0.7-0.6-1-1.5-1-2.8V547.5z"/>
			<path class="st0" d="M957.9,607.1c0,6-0.8,11.8-2.3,17.2c-1.5,5.4-3.7,10.5-6.6,15.2c-2.8,4.7-6.2,8.9-10.2,12.8
				c-4,3.8-8.3,7.1-13.1,9.7c-4.8,2.7-10,4.7-15.6,6.2s-11.4,2.2-17.3,2.2h-42.1c-1,0-1.9-0.2-2.7-0.7c-0.8-0.5-1.2-1.4-1.2-2.9
				V547.5c0-1.2,0.3-2.2,1-2.9c0.7-0.7,1.6-1.1,2.9-1.1h42.1c6,0,11.7,0.7,17.3,2.2c5.5,1.5,10.7,3.6,15.5,6.3
				c4.8,2.7,9.2,6,13.2,9.8c4,3.8,7.4,8.1,10.2,12.8c2.8,4.7,5,9.8,6.6,15.3C957.1,595.4,957.9,601.1,957.9,607.1z M879.8,574.1
				v65.6h7.2c1.3,0,2.6,0,3.8-0.1c1.2-0.1,2.5-0.2,3.8-0.3c4.3-0.3,8.2-1.4,11.9-3.1c3.7-1.7,6.9-4,9.7-6.8s4.9-6.1,6.5-9.9
				c1.6-3.8,2.4-8,2.4-12.5c0-4.8-0.9-9.2-2.7-13.2c-1.8-4-4.2-7.5-7.3-10.4c-3.1-2.9-6.7-5.2-10.8-6.8c-4.1-1.6-8.5-2.4-13.2-2.4
				H879.8z"/>
		</g>
		<g>
			<path class="st0" d="M295.1,722.7c0-0.6,0.2-1,0.6-1.4c0.4-0.3,0.9-0.5,1.4-0.5h46c0.5,0,1,0.2,1.4,0.5c0.4,0.3,0.7,0.8,0.7,1.4
				v7.7c0,0.6-0.2,1.1-0.5,1.5c-0.4,0.4-0.9,0.7-1.6,0.7h-16.6v51.2c0,0.5-0.2,1-0.6,1.4c-0.4,0.4-0.9,0.6-1.5,0.6h-8.6
				c-0.5,0-1-0.2-1.4-0.6c-0.4-0.4-0.6-0.9-0.6-1.4v-51.2h-16.7c-0.6,0-1.1-0.2-1.4-0.5c-0.4-0.4-0.6-0.9-0.6-1.6V722.7z"/>
			<path class="st0" d="M396.6,753.3c0-3.1,0.4-6,1.2-8.9c0.8-2.9,1.9-5.5,3.4-8c1.5-2.5,3.2-4.7,5.2-6.8s4.3-3.8,6.8-5.2
				c2.5-1.4,5.1-2.6,8-3.4c2.8-0.8,5.8-1.2,8.9-1.2c3.1,0,6,0.4,8.9,1.2c2.8,0.8,5.5,1.9,8,3.4c2.5,1.4,4.7,3.2,6.8,5.2
				c2,2,3.8,4.3,5.2,6.8c1.4,2.5,2.6,5.1,3.4,8c0.8,2.9,1.2,5.8,1.2,8.9c0,3.1-0.4,6.1-1.2,8.9c-0.8,2.8-1.9,5.5-3.4,8
				c-1.4,2.5-3.2,4.7-5.2,6.8c-2,2-4.3,3.8-6.8,5.2c-2.5,1.4-5.1,2.6-8,3.3c-2.8,0.8-5.8,1.2-8.9,1.2s-6.1-0.4-8.9-1.2
				c-2.8-0.8-5.5-1.9-8-3.4c-2.5-1.5-4.7-3.2-6.8-5.2s-3.8-4.3-5.2-6.7c-1.4-2.5-2.6-5.1-3.3-8C397,759.4,396.6,756.4,396.6,753.3z
				 M409.2,753.2c0,2.9,0.5,5.7,1.6,8.3c1.1,2.6,2.5,4.8,4.4,6.7c1.8,1.9,4,3.4,6.6,4.5c2.5,1.1,5.3,1.7,8.2,1.7
				c2.9,0,5.6-0.6,8.2-1.7c2.5-1.1,4.7-2.6,6.6-4.5c1.9-1.9,3.3-4.1,4.4-6.7c1.1-2.6,1.6-5.3,1.6-8.3c0-2.9-0.5-5.7-1.6-8.2
				c-1.1-2.6-2.5-4.8-4.4-6.7c-1.9-1.9-4.1-3.4-6.6-4.5c-2.5-1.1-5.2-1.7-8.2-1.7c-2.9,0-5.7,0.6-8.2,1.7c-2.5,1.1-4.7,2.6-6.6,4.5
				c-1.9,1.9-3.3,4.1-4.4,6.7C409.8,747.6,409.2,750.3,409.2,753.2z"/>
			<path class="st0" d="M518.6,722.7c0-0.5,0.2-1,0.5-1.4c0.3-0.4,0.8-0.6,1.4-0.6h8.9c0.2,0,0.4,0,0.7,0.1c0.2,0.1,0.5,0.2,0.7,0.4
				c0.2,0.2,0.4,0.4,0.5,0.6c0.1,0.2,0.2,0.5,0.2,0.8v26l24.5-26.5c0.6-0.9,1.2-1.4,1.9-1.4h12.5c0.8,0,1.2,0.2,1.2,0.5
				c0,0.2-0.2,0.5-0.5,0.9L548,749.1L575,784c0.4,0.6,0.7,1,0.7,1.3c0,0.3-0.3,0.5-0.9,0.5h-13.3c-0.7,0-1.3-0.5-1.9-1.4l-20.6-26.2
				l-7.4,7.7v17.9c0,1.3-0.7,1.9-2.1,1.9h-8.9c-1.3,0-1.9-0.6-1.9-1.9V722.7z"/>
			<path class="st0" d="M627.9,722.9c0-1.4,0.6-2.1,1.9-2.1h42.2c0.8,0,1.3,0.2,1.6,0.6c0.3,0.4,0.5,1,0.5,1.6v7.7
				c0,0.5-0.2,1-0.6,1.4c-0.4,0.4-0.9,0.6-1.6,0.6h-31.1V746h24c0.6-0.1,1.1,0.1,1.4,0.4c0.4,0.3,0.5,0.8,0.5,1.6v7.9
				c0,0.5-0.1,1-0.4,1.4s-0.8,0.6-1.4,0.6h-24v15.9H673c0.8,0,1.4,0.2,1.6,0.5c0.3,0.4,0.4,0.9,0.4,1.6v8c0,1.2-0.6,1.8-1.9,1.8
				h-43.3c-0.5,0-1-0.1-1.4-0.4c-0.4-0.3-0.6-0.8-0.6-1.4V722.9z"/>
			<path class="st0" d="M729.2,722.8c0-0.6,0.2-1,0.5-1.4c0.3-0.4,0.8-0.6,1.4-0.6h10.1c0.4,0,0.8,0.1,1.2,0.3
				c0.4,0.2,0.7,0.5,1,0.9c5,7.1,9.9,14.2,14.8,21.2c4.9,7,9.8,14.1,14.8,21.2v-41.9c0.1-0.5,0.3-0.9,0.7-1.2
				c0.4-0.3,0.8-0.4,1.3-0.4h8.4c0.6,0,1.1,0.2,1.5,0.5c0.4,0.3,0.6,0.8,0.6,1.4v61.2c0,1.2-0.7,1.8-2.1,1.8H774
				c-0.6,0-1.2-0.4-1.8-1.2c-5.1-7.4-10.2-14.9-15.3-22.3c-5.1-7.4-10.2-14.9-15.3-22.3v43.9c0,0.6-0.1,1.1-0.5,1.4
				c-0.3,0.3-0.8,0.5-1.6,0.5h-8.4c-0.7,0-1.2-0.2-1.5-0.5c-0.3-0.3-0.5-0.8-0.5-1.4V722.8z"/>
		</g>
	</g>
	<g>
		<g>
			<path class="st1" d="M429.4,316.3l0.2-56.3c0-0.1-0.1-0.1-0.2-0.1C390,230.6,419,188.7,471.8,215c33.6,16.7,47.3,23.7,81.4,41.2
				l12.4,7l68.6-31.8c-41.5-22.5-159.8-89.1-190.6-90.9c-118-7-132.9,100.1-60.2,154.7C404.1,310.9,414,312.2,429.4,316.3z"/>
			<path class="st1" d="M622.7,345.3l-51.2,14.4l-0.4,0.2c0,0.3-0.1,0.6-0.1,0.9c-2.3,59-59.4,55.5-60.3-7.2
				c-0.5-34-0.3-67.5-0.4-101.6l-60.5-29c0.1,4.3,0.2,35.6,0.2,42c-0.2,43.2-1.9,126.7,7.5,147.8c53.4,120.4,173.8,62.3,166.6-50
				C624.1,360.2,623,348,622.7,345.3z"/>
			<path class="st1" d="M555.3,165.5l54.4,29.6c3-1.3,1.9-0.8,4.7-1.6c52.2-16.6,68.7,35.4,12.6,59.8
				c-34.4,14.9-61.6,27.2-96.9,42.1l-0.1,54.5l93.3-28.8c36.1-11.1,68.1-30.3,78.9-41.6c91.6-96.7-11.7-186.4-113.7-132.8
				C587.1,147.4,556.5,164.8,555.3,165.5z"/>
		</g>
		<g>
			<path class="st1" d="M315.9,189.9c19.4-6.6,29.7-27.7,23.1-47.1c-6.6-19.4-27.7-29.7-47.1-23.1c-19.4,6.6-29.7,27.7-23.1,47.1
				C275.4,186.1,296.5,196.5,315.9,189.9z"/>
			<path class="st1" d="M741.5,141.4c-7.4,19.1,2.1,40.6,21.2,48c19.1,7.4,40.6-2.1,48-21.2c7.4-19.1-2.1-40.6-21.2-48
				C770.4,112.8,748.9,122.3,741.5,141.4z"/>
		</g>
	</g>
</g>
</svg>
